# xmcd CD database file
#
# Track frame offsets:
#	150
#	13812
#	25622
#	38765
#	63182
#	73742
#	88390
#	103645
#	116492
#	126992
#	161972
#	207617
#	221147
#	242175
#
# Disc length: 3798 seconds
#
# Revision: 0
# Processed by: cddbd v1.5.2PL0 Copyright (c) Steve Scherf et al.
# Submitted via: CDex 1.51
#
DISCID=d30ed40e
DTITLE=Vários - Melhores do Século
DYEAR=1900
DGENRE=Blues
TTITLE0=1- Big Bill Blues - Big Bill Broonzy
TTITLE1=2- Stormy Night Blues - Leroy Carr
TTITLE2=3- For All We Know - Billy Holiday, Ray Ellis and his orchestra
TTITLE3=4- Mannish Boy - Muddy Waters
TTITLE4=5- Love in Vain - Robert Johnson
TTITLE5=6- Pig Meat Papa - Leadbelly
TTITLE6=7- Amtrak Blues - Alberta Hunter
TTITLE7=8- Away Down in the Alley Blues - Lonnie Johnson
TTITLE8=9- Cool Kind Woman - Willie Dixon
TTITLE9=10- Bus Driver - Muddy Waters
TTITLE10=11- B.B.'s Blues - B.B. King and Branford Marsalis
TTITLE11=12- In the House - Bessie Smith
TTITLE12=13- Couldn't Stand the Weather - Stevie Ray Vaughan and Double Trouble
TTITLE13=14- Ball and Chain - Big Brother and The Holding Company
EXTD=
EXTT0=
EXTT1=
EXTT2=
EXTT3=
EXTT4=
EXTT5=
EXTT6=
EXTT7=
EXTT8=
EXTT9=
EXTT10=
EXTT11=
EXTT12=
EXTT13=
PLAYORDER=
